<?xml version="1.0" encoding="utf-8"?><svg viewBox="0 0 512 512" xmlns="http://www.w3.org/2000/svg" xmlns:xlink="http://www.w3.org/1999/xlink"><style>:root>svg{display:none}:root>svg:target{display:block}</style><svg fill="none" viewBox="0 0 20 20" id="instagram" xmlns="http://www.w3.org/2000/svg"><path d="M5.8 0h8.4A5.8 5.8 0 0120 5.8v8.4a5.8 5.8 0 01-5.8 5.8H5.8A5.8 5.8 0 010 14.2V5.8A5.8 5.8 0 015.8 0zm-.2 2A3.6 3.6 0 002 5.6v8.8A3.6 3.6 0 005.6 18h8.8a3.6 3.6 0 003.6-3.6V5.6A3.6 3.6 0 0014.4 2H5.6zm9.65 1.5a1.25 1.25 0 110 2.5 1.25 1.25 0 010-2.5zM10 5a5 5 0 110 10 5 5 0 010-10zm0 2a3 3 0 100 6 3 3 0 000-6z" fill="#fff"/></svg><svg fill="none" viewBox="0 0 22 17" id="twitter" xmlns="http://www.w3.org/2000/svg"><path d="M21.46 2.012a8.58 8.58 0 01-2.466.676A4.305 4.305 0 0020.881.314a8.591 8.591 0 01-2.725 1.041 4.292 4.292 0 00-7.313 3.914A12.184 12.184 0 011.997.787a4.271 4.271 0 00-.581 2.157 4.29 4.29 0 001.91 3.572 4.276 4.276 0 01-1.945-.537v.054c0 2.08 1.48 3.814 3.443 4.209a4.296 4.296 0 01-1.939.073 4.296 4.296 0 004.01 2.98 8.61 8.61 0 01-5.33 1.838c-.347 0-.688-.02-1.024-.06A12.147 12.147 0 007.12 17c7.893 0 12.21-6.54 12.21-12.21 0-.187-.004-.372-.012-.556a8.719 8.719 0 002.141-2.222z" fill="#fff"/></svg><svg viewBox="0 0 512 512" id="user" xmlns="http://www.w3.org/2000/svg"><path d="M437.02 74.98C388.668 26.63 324.379 0 256 0 187.617 0 123.332 26.629 74.98 74.98 26.63 123.332 0 187.617 0 256c0 68.379 26.629 132.668 74.98 181.02C123.332 485.37 187.617 512 256 512c68.379 0 132.668-26.629 181.02-74.98C485.37 388.668 512 324.379 512 256c0-68.383-26.629-132.668-74.98-181.02zM128.34 442.387c10.707-61.649 64.129-107.121 127.66-107.121 63.535 0 116.953 45.472 127.66 107.12C347.312 467.36 303.336 482 256 482s-91.313-14.64-127.66-39.613zm46.262-218.52c0-44.887 36.515-81.398 81.398-81.398s81.398 36.515 81.398 81.398c0 44.883-36.515 81.399-81.398 81.399s-81.398-36.516-81.398-81.399zm235.043 197.711c-8.075-28.7-24.11-54.738-46.586-75.078a159.444 159.444 0 00-46.36-29.27c30.5-19.894 50.703-54.312 50.703-93.363 0-61.426-49.976-111.398-111.402-111.398S144.602 162.44 144.602 223.867c0 39.051 20.203 73.469 50.699 93.363a159.483 159.483 0 00-46.36 29.266c-22.472 20.34-38.511 46.379-46.586 75.078C57.883 380.274 30 321.336 30 256 30 131.383 131.383 30 256 30s226 101.383 226 226c0 65.34-27.883 124.277-72.355 165.578zm0 0"/></svg></svg>